<svg width="62" height="57" viewBox="0 0 62 57" fill="none" xmlns="http://www.w3.org/2000/svg">
<path d="M58.4115 17.15H43.1813C42.1808 17.15 41.3696 17.9611 41.3696 18.9617V54.1883C41.3696 55.1889 42.1808 56 43.1813 56H58.4115C59.4121 56 60.2232 55.1889 60.2232 54.1883V18.9617C60.2232 17.9611 59.4121 17.15 58.4115 17.15Z" fill="#181F2B" stroke="#62E0D9" stroke-width="1.641"/>
<path fill-rule="evenodd" clip-rule="evenodd" d="M41.3022 21.4364H60.2898V22.1723H41.3022V21.4364ZM41.3022 49.3029H60.2898V50.0387H41.3022V49.3029Z" fill="white" stroke="#62E0D9" stroke-width="1.458"/>
<path d="M50.3598 53.1198C50.8414 53.1198 51.2318 52.7301 51.2318 52.2493C51.2318 51.7685 50.8414 51.3788 50.3598 51.3788C49.8782 51.3788 49.4878 51.7685 49.4878 52.2493C49.4878 52.7301 49.8782 53.1198 50.3598 53.1198Z" stroke="#62E0D9" stroke-width="1.01"/>
<path fill-rule="evenodd" clip-rule="evenodd" d="M33.611 12H33.4559L29.3336 13.516L24.6664 12L20.311 13.3724C20.1551 13.4442 20 13.5167 20 13.7335V24.6382C20 24.8557 20.1551 25 20.389 25H20.5441L24.6664 23.4833L29.3336 24.9993L33.689 23.6276C33.8449 23.5551 34 23.4108 34 23.2665V12.3611C34 12.1443 33.8449 12 33.611 12ZM29.3336 22.8322L24.6664 21.3697V13.0832L29.3336 14.5457V22.833V22.8322Z" fill="#62E0D9"/>
<path fill-rule="evenodd" clip-rule="evenodd" d="M1.7503 38.8639H54.2497V32.9969H1.7503V38.8639ZM38.0976 47.6661H41.0084V50.2597H14.9916V47.6661H17.9016C18.3859 47.6661 18.7764 47.2773 18.7764 46.7967V40.6034H37.2229V46.7967C37.2229 47.2773 37.6141 47.6661 38.0976 47.6661ZM1.7503 31.2573H54.2497V1.73811H1.7503V31.2566V31.2573ZM0.874781 0C0.391252 0 0 0.388778 0 0.869423V39.734C0 40.2154 0.391252 40.6042 0.874781 40.6042H17.0269V45.9273H14.1161C13.6326 45.9273 13.2413 46.3183 13.2413 46.7974V51.1298C13.2413 51.609 13.6326 52 14.1161 52H41.8839C42.3667 52 42.7587 51.609 42.7587 51.1298V46.7967C42.7587 46.3175 42.3667 45.9265 41.8839 45.9265H38.9724V40.6034H55.1245C55.608 40.6034 56 40.2139 56 39.7333V0.870892C56 0.389513 55.608 0.000734965 55.1252 0.000734965H0.874781V0Z" fill="#62E0D9"/>
<path fill-rule="evenodd" clip-rule="evenodd" d="M26.5 35C26.224 35 26 35.2237 26 35.4998C26 35.6325 26.0527 35.7597 26.1464 35.8535C26.2402 35.9473 26.3674 36 26.5 36C26.6326 36 26.7598 35.9473 26.8536 35.8535C26.9473 35.7597 27 35.6325 27 35.4998C27 35.2241 26.7759 35 26.5 35Z" fill="#62E0D9"/>
</svg>
