<svg width="77" height="53" viewBox="0 0 77 53" fill="none" xmlns="http://www.w3.org/2000/svg">
<path fill-rule="evenodd" clip-rule="evenodd" d="M71.7786 49.642C73.8224 49.642 75.4788 48.0855 75.4788 46.1641V7.90717C75.4788 6.62738 74.3734 5.58912 73.0123 5.58912L71.7794 49.642H71.7786ZM12.5796 10.2655V43.8511C12.5796 47.0489 15.1777 49.642 18.3831 49.642H71.7786C71.3218 49.6426 70.8694 49.5531 70.4472 49.3788C70.0249 49.2045 69.6412 48.9487 69.3178 48.626C68.9945 48.3034 68.7379 47.9202 68.5626 47.4983C68.3874 47.0765 68.2969 46.6243 68.2965 46.1675V3.31637C68.2956 2.70143 68.0506 2.11201 67.6153 1.67765C67.18 1.2433 66.59 0.999555 65.9751 1H52.045L47.4022 7.9491H14.901C14.286 7.94866 13.6961 8.1924 13.2608 8.62675C12.8255 9.06111 12.5805 9.65053 12.5796 10.2655V10.2655Z" stroke="#62E0D9" stroke-width="1.405" stroke-linecap="round" stroke-linejoin="round"/>
<path fill-rule="evenodd" clip-rule="evenodd" d="M34.6196 23.2755V25.9601C34.6196 26.8499 35.3249 27.5703 36.1963 27.5703H38.8213L34.6196 23.2755ZM40.9221 27.5703V27.3866C40.9221 26.8172 40.7007 26.2712 40.3065 25.8678L36.286 21.7567C36.0927 21.5582 35.8617 21.4003 35.6065 21.2922C35.3513 21.1842 35.0771 21.1283 34.7999 21.1277H23.0671C21.9056 21.1277 20.9663 22.0897 20.9663 23.2755V45.827C20.9663 47.0129 21.9064 47.974 23.0671 47.974H38.8213C39.9811 47.974 40.9221 47.0129 40.9221 45.827V38.3101" fill="#62E0D9"/>
<path fill-rule="evenodd" clip-rule="evenodd" d="M28.3184 41.5322V44.7527H31.4692L41.4475 34.5513L38.2967 31.33L28.3184 41.5314V41.5322ZM41.4475 34.5513L42.5612 33.4124C42.8574 33.1071 43.0231 32.6984 43.0231 32.2731C43.0231 31.8477 42.8574 31.439 42.5612 31.1337L41.6387 30.1911C41.4941 30.0418 41.3209 29.9232 41.1295 29.8421C40.9381 29.7611 40.7324 29.7193 40.5246 29.7193C40.3167 29.7193 40.111 29.7611 39.9196 29.8421C39.7282 29.9232 39.5551 30.0418 39.4104 30.1911L38.2967 31.33L41.4475 34.5513Z" stroke="white" stroke-width="0.803" stroke-linejoin="round"/>
<path d="M25.167 38.3101H31.4686M25.1678 31.8667H35.6703H25.1678ZM25.167 35.088H34.6203H25.167Z" stroke="white" stroke-width="0.803" stroke-linecap="round" stroke-linejoin="round"/>
<path fill-rule="evenodd" clip-rule="evenodd" d="M27.1448 50.0043C27.1448 51.6581 25.7945 53 24.129 53H3.01581C1.35107 53 0 51.6581 0 50.0043V35.0259C0 33.3721 1.35024 32.0302 3.01581 32.0302H24.129C25.7937 32.0302 27.1448 33.3721 27.1448 35.0259V50.0043ZM9.04825 37.5234C9.04581 38.1877 8.77966 38.8238 8.30832 39.2918C7.83698 39.7598 7.19904 40.0215 6.5348 40.0193C5.87056 40.0215 5.23263 39.7598 4.76129 39.2918C4.28995 38.8238 4.0238 38.1877 4.02135 37.5234C4.02245 37.1945 4.08834 36.8689 4.21525 36.5654C4.34215 36.2619 4.5276 35.9864 4.761 35.7545C4.99439 35.5227 5.27117 35.3391 5.57552 35.2142C5.87987 35.0894 6.20583 35.0257 6.5348 35.0268C6.86377 35.0257 7.18974 35.0894 7.49409 35.2142C7.79844 35.3391 8.07522 35.5227 8.30861 35.7545C8.54201 35.9864 8.72745 36.2619 8.85436 36.5654C8.98127 36.8689 9.04715 37.1945 9.04825 37.5234Z" fill="#62E0D9"/>
<path d="M22.4641 49.3535L16.5524 43.1005L14.0893 45.7062L10.6408 42.0589L3.74365 49.3535" stroke="white" stroke-width="0.65" stroke-linecap="round" stroke-linejoin="round"/>
</svg>
