<svg width="128" height="34" viewBox="0 0 128 34" fill="none" xmlns="http://www.w3.org/2000/svg">
<path fill-rule="evenodd" clip-rule="evenodd" d="M0.825409 10.6404V10.7228L22.2563 19.5894L43.7629 10.6926V10.67L22.2563 1.77382L0.825409 10.6404ZM8.55174 10.6816L22.257 5.01149L35.9638 10.6816L22.2563 16.3511L8.55174 10.6816ZM22.2563 23.0332L0.825409 14.2994V17.5293L22.2563 26.2838L43.7629 17.4997V14.2691L22.2563 23.0332ZM22.2563 29.5846L0.825409 20.8494V24.08L22.2563 32.8352L43.7629 24.051V20.8211L22.2563 29.5846ZM122.707 16.9843C122.719 15.5778 122.13 14.22 121.061 13.1888C120.558 12.7067 119.952 12.3195 119.28 12.0499C118.597 11.7759 117.856 11.6362 117.108 11.6402C116.36 11.6362 115.619 11.7759 114.936 12.0499C114.264 12.3195 113.658 12.7067 113.155 13.1888C112.085 14.2202 111.497 15.5782 111.509 16.985C111.497 18.3918 112.085 19.7497 113.155 20.7812C113.658 21.263 114.264 21.65 114.936 21.9194C115.619 22.1937 116.36 22.3336 117.108 22.3298C117.856 22.3336 118.597 22.1937 119.28 21.9194C119.952 21.65 120.558 21.263 121.061 20.7812C122.131 19.7498 122.719 18.3918 122.707 16.985V16.9843ZM127.593 16.9843C127.593 18.301 127.321 19.5205 126.779 20.6439C126.257 21.7398 125.496 22.7311 124.539 23.5595C123.589 24.3796 122.475 25.0276 121.197 25.503C119.918 25.9791 118.556 26.2168 117.108 26.2168C115.66 26.2168 114.303 25.9784 113.036 25.503C111.799 25.0448 110.67 24.3802 109.711 23.5447C108.756 22.7088 107.995 21.7128 107.471 20.6137C106.928 19.4902 106.657 18.2804 106.657 16.985C106.657 15.7095 106.934 14.51 107.488 13.3865C108.025 12.2856 108.791 11.2859 109.745 10.4407C110.7 9.59714 111.83 8.92691 113.07 8.46691C114.337 7.99085 115.683 7.75315 117.108 7.75315C118.556 7.75315 119.918 7.99085 121.197 8.46691C122.475 8.94231 123.589 9.59036 124.539 10.4104C125.49 11.2298 126.236 12.207 126.779 13.3408C127.321 14.4746 127.593 15.6889 127.593 16.985V16.9843ZM104.961 25.6699C104.542 25.8423 104.104 25.9747 103.654 26.0648C103.159 26.1669 102.652 26.2179 102.144 26.2168C101.42 26.2168 100.725 26.1305 100.057 25.9591C99.4133 25.7982 98.8168 25.513 98.3096 25.1236C97.8126 24.739 97.4165 24.2379 97.1219 23.6201C96.828 23.003 96.6811 22.2589 96.6811 21.388V0.555664H101.669V20.6285C101.669 21.3577 101.833 21.8589 102.161 22.132C102.489 22.4058 102.879 22.5424 103.331 22.5424C103.897 22.5424 104.441 22.3903 104.961 22.0869V25.6699ZM94.4749 8.17831L85.6523 29.0409C84.9969 30.5998 84.1369 31.7233 83.0738 32.4119C82.0106 33.0999 80.7437 33.4445 79.2729 33.4445C79.0233 33.4431 78.7741 33.4278 78.5267 33.3988C78.2634 33.3699 78.0027 33.3242 77.7466 33.2622L76.1174 29.1929C76.4987 29.354 76.8968 29.4813 77.3058 29.573C77.6823 29.6602 78.0694 29.7059 78.4583 29.7089C79.2282 29.7089 79.9291 29.5524 80.5629 29.2387C81.196 28.9243 81.6822 28.3426 82.0214 27.4923L82.7007 25.7311L75.1335 8.17831H80.4606L84.9738 19.4747L89.2155 8.17831H94.4749ZM73.9458 5.53586H61.1884V11.1847H73.7772V15.0112H61.1884V25.7614H56.0312V1.49746H73.9465V5.53651L73.9458 5.53586Z" fill="white"/>
</svg>
