<svg width="59" height="76" viewBox="0 0 59 76" fill="none" xmlns="http://www.w3.org/2000/svg">
<path fill-rule="evenodd" clip-rule="evenodd" d="M37.0094 31.0813L26.7383 41.5573L19.1807 33.8502L15.4023 37.7042L26.7375 49.2652L44.0447 31.6154L40.2654 27.7615L37.0094 31.0813Z" stroke="#62E0D9" stroke-width="3.064"/>
<path fill-rule="evenodd" clip-rule="evenodd" d="M48.1062 9.53889C43.6199 9.53889 39.1596 8.58485 35.104 6.61294C33.1615 5.67821 31.1745 4.48565 29.457 3C27.7396 4.48565 25.7526 5.67821 23.8092 6.61294C19.7545 8.58485 15.295 9.53889 10.8078 9.53889H1.91406V43.6275C1.91406 49.5987 4.27986 55.3389 8.48739 59.4943C14.6652 65.5831 29.4579 73.4976 29.4579 73.4976C29.4579 73.4976 44.2489 65.5831 50.4267 59.4943C54.6342 55.3389 57 49.5978 57 43.6275V9.53889H48.1062Z" stroke="#62E0D9" stroke-width="3.064"/>
<path fill-rule="evenodd" clip-rule="evenodd" d="M49.8059 21.8692V43.9138C49.8059 47.8963 48.2077 51.7578 45.4229 54.5083C41.5496 58.327 32.7188 63.5532 29.4578 65.426C26.1942 63.5507 17.3559 58.3186 13.4868 54.5049C10.7036 51.757 9.10791 47.8963 9.10791 43.9138V17.162H10.8077C16.4404 17.162 22.006 15.9031 26.9047 13.523C27.7729 13.1055 28.6246 12.6545 29.4578 12.1709C30.2741 12.6454 31.1374 13.1031 32.031 13.5339C36.9137 15.9073 42.4734 17.162 48.1061 17.162H49.8059V21.8692Z" stroke="#62E0D9" stroke-width="3.064"/>
</svg>
