<svg width="73" height="60" viewBox="0 0 73 60" fill="none" xmlns="http://www.w3.org/2000/svg">
<path fill-rule="evenodd" clip-rule="evenodd" d="M28.7731 9.58142V11.2944V9.58142V9.58142ZM28.7731 43.8499V45.5637V43.8499ZM46.013 28.429H44.289H46.013ZM11.5333 28.429H9.80842H11.5324H11.5333ZM27.9107 35.2825C27.2486 35.2825 26.5865 35.0324 26.0832 34.5304L14.9804 23.4964L18.6372 19.8625L27.9107 29.0789L51.0797 6.05072L54.7382 9.68452L29.74 34.5296C29.4998 34.7686 29.2145 34.9581 28.9006 35.0872C28.5867 35.2162 28.2503 35.2823 27.9107 35.2817V35.2825ZM47.5647 9.57804C42.6822 4.31325 35.6844 1.0141 27.9099 1.0141C13.1528 1.0141 1.18848 12.9051 1.18848 27.5721C1.18848 42.2392 13.1528 54.131 27.9107 54.131C42.6686 54.131 54.633 42.2392 54.633 27.5721C54.633 22.4865 53.195 17.7355 50.7028 13.6986L47.5647 9.57804V9.57804ZM43.885 13.1966C41.865 10.9758 39.3995 9.20159 36.6477 7.9886C33.896 6.77562 30.9193 6.15085 27.9099 6.15466C16.0075 6.15466 6.35959 15.7428 6.35959 27.5721C6.35959 39.4023 16.0075 48.9904 27.9099 48.9904C39.8123 48.9904 49.4601 39.4023 49.4601 27.5721C49.4601 23.9138 48.5375 20.4718 46.9119 17.46L43.885 13.1966V13.1966Z" stroke="#62E0D9" stroke-width="1.3" stroke-linecap="round" stroke-linejoin="round"/>
<path fill-rule="evenodd" clip-rule="evenodd" d="M46.9986 34.2118C46.9986 36.3076 45.2882 38.0062 43.1805 38.0062C42.1689 38.0069 41.1985 37.6075 40.4827 36.896C39.7668 36.1844 39.3642 35.2189 39.3633 34.2118C39.3633 32.1161 41.0737 30.4175 43.1805 30.4175C43.6815 30.417 44.1776 30.5148 44.6406 30.7053C45.1036 30.8957 45.5243 31.1751 45.8789 31.5274C46.2334 31.8798 46.5148 32.2982 46.7069 32.7588C46.899 33.2194 46.9981 33.7131 46.9986 34.2118V34.2118Z" stroke="#62E0D9" stroke-width="1.3" stroke-linejoin="round"/>
<path fill-rule="evenodd" clip-rule="evenodd" d="M43.1804 38.0062C41.5693 38.0062 40.1144 38.4989 39.0729 38.9814C38.5864 39.2115 38.1758 39.5747 37.8891 40.0286C37.6024 40.4825 37.4516 41.0083 37.4541 41.5445V47.4913C37.4548 47.9948 37.6563 48.4775 38.0142 48.8333C38.3722 49.189 38.8574 49.3887 39.3632 49.3885V56.9764C39.3634 57.2257 39.4129 57.4726 39.509 57.7029C39.6051 57.9332 39.7457 58.1424 39.923 58.3186C40.1003 58.4947 40.3107 58.6344 40.5422 58.7296C40.7737 58.8249 41.0217 58.8738 41.2722 58.8735H45.0894C45.3399 58.8738 45.588 58.8249 45.8195 58.7296C46.0509 58.6344 46.2613 58.4947 46.4386 58.3186C46.6159 58.1424 46.7566 57.9332 46.8526 57.7029C46.9487 57.4726 46.9982 57.2257 46.9985 56.9764V49.3876C47.5039 49.3876 47.9888 49.1879 48.3465 48.8324C48.7043 48.4769 48.9057 47.9945 48.9066 47.4913V41.5437C48.9092 41.0075 48.7583 40.4817 48.4717 40.0278C48.185 39.5739 47.7744 39.2106 47.2879 38.9806C46.2472 38.4989 44.7923 38.0054 43.1804 38.0054V38.0062Z" stroke="#62E0D9" stroke-width="1.3" stroke-linecap="round" stroke-linejoin="round"/>
<path fill-rule="evenodd" clip-rule="evenodd" d="M58.4507 34.2118C58.4507 36.3076 56.7412 38.0062 54.6327 38.0062C54.1317 38.0067 53.6357 37.9089 53.1727 37.7184C52.7098 37.528 52.289 37.2486 51.9346 36.8962C51.5801 36.5439 51.2988 36.1255 51.1068 35.6649C50.9148 35.2043 50.8158 34.7105 50.8154 34.2118C50.8154 32.1161 52.525 30.4175 54.6327 30.4175C55.1336 30.417 55.6297 30.5148 56.0926 30.7053C56.5555 30.8957 56.9763 31.1751 57.3307 31.5275C57.6852 31.8798 57.9665 32.2982 58.1585 32.7588C58.3505 33.2194 58.4495 33.7132 58.4499 34.2118H58.4507Z" stroke="#62E0D9" stroke-width="1.3" stroke-linejoin="round"/>
<path fill-rule="evenodd" clip-rule="evenodd" d="M54.633 38.0062C53.0219 38.0062 51.567 38.4989 50.5255 38.9814C50.039 39.2115 49.6284 39.5747 49.3417 40.0286C49.0551 40.4825 48.9042 41.0083 48.9068 41.5445V47.4913C48.907 47.7407 48.9565 47.9875 49.0526 48.2178C49.1487 48.4481 49.2893 48.6573 49.4666 48.8335C49.6439 49.0097 49.8543 49.1494 50.0858 49.2446C50.3173 49.3398 50.5653 49.3887 50.8158 49.3885V56.9764C50.8165 57.4799 51.0179 57.9626 51.3759 58.3183C51.7339 58.6741 52.219 58.8738 52.7248 58.8735H56.5421C57.0478 58.8738 57.5329 58.674 57.8907 58.3183C58.2485 57.9625 58.4498 57.4798 58.4502 56.9764V49.3876C58.7007 49.388 58.9488 49.3392 59.1803 49.2441C59.4119 49.1489 59.6223 49.0093 59.7997 48.8333C59.977 48.6572 60.1178 48.448 60.214 48.2178C60.3101 47.9875 60.3598 47.7407 60.3601 47.4913V41.5437C60.3626 41.0074 60.2116 40.4815 59.9248 40.0276C59.638 39.5737 59.2272 39.2105 58.7405 38.9806C57.6999 38.4989 56.2441 38.0054 54.633 38.0054V38.0062Z" stroke="#62E0D9" stroke-width="1.3" stroke-linecap="round" stroke-linejoin="round"/>
<path fill-rule="evenodd" clip-rule="evenodd" d="M69.9025 34.2118C69.9025 36.3076 68.1938 38.0062 66.0853 38.0062C65.5844 38.0067 65.0883 37.9089 64.6253 37.7184C64.1624 37.528 63.7417 37.2486 63.3872 36.8962C63.0327 36.5439 62.7515 36.1255 62.5594 35.6649C62.3674 35.2043 62.2684 34.7105 62.2681 34.2118C62.2681 32.1161 63.9768 30.4175 66.0853 30.4175C66.5862 30.417 67.0823 30.5148 67.5452 30.7053C68.0082 30.8957 68.4289 31.1751 68.7834 31.5275C69.1378 31.8798 69.4191 32.2982 69.6111 32.7588C69.8032 33.2194 69.9022 33.7132 69.9025 34.2118V34.2118Z" stroke="#62E0D9" stroke-width="1.3" stroke-linejoin="round"/>
<path fill-rule="evenodd" clip-rule="evenodd" d="M66.0852 38.0062C64.4741 38.0062 63.0192 38.4989 61.9777 38.9814C61.4912 39.2115 61.0806 39.5747 60.7939 40.0286C60.5072 40.4825 60.3563 41.0083 60.3589 41.5445V47.4913C60.3591 47.7407 60.4087 47.9875 60.5048 48.2178C60.6008 48.4481 60.7415 48.6573 60.9188 48.8335C61.096 49.0097 61.3064 49.1494 61.5379 49.2446C61.7694 49.3398 62.0175 49.3887 62.268 49.3885V56.9764C62.2686 57.4798 62.47 57.9623 62.8278 58.318C63.1855 58.6737 63.6705 58.8735 64.1761 58.8735H67.9942C68.4999 58.8738 68.985 58.674 69.3429 58.3183C69.7007 57.9625 69.9019 57.4798 69.9024 56.9764V49.3876C70.4081 49.3881 70.8933 49.1886 71.2513 48.833C71.6093 48.4773 71.8108 47.9948 71.8114 47.4913V41.5437C71.814 41.0075 71.6631 40.4817 71.3765 40.0278C71.0898 39.5739 70.6792 39.2106 70.1927 38.9806C69.152 38.4989 67.6963 38.0054 66.0852 38.0054V38.0062Z" stroke="#62E0D9" stroke-width="1.3" stroke-linecap="round" stroke-linejoin="round"/>
</svg>
